PathFileType	4	(X/Y/Z)	s02c0402.trc
DataRate	CameraRate	NumFrames	NumMarkers	Units	OrigDataRate	OrigDataStartFrame	OrigNumFrames
200	200	6	50	mm	200	1250	2000
Frame#	Time	racr			lacr			c7			jug			rlel			rdr			llel			ldr			s2			lic			ric			lasi			rasi			rpsi			lpsi			rgt			lgt			rth1			rth2			rth3			rth4			rlfc			rmfc			rsh1			rsh2			rsh3			rsh4			rlmal			rmmal			rtoe			rmt5			rmt1			lth1			lth2			lth4			lth3			llfc			lmfc			lsh1			lsh2			lsh3			lsh4			llmal			lmmal			lcal			ltoe			lmt5			SBIKE			LBIKE			RBIKE			
		X1	Y1	Z1	X2	Y2	Z2	X3	Y3	Z3	X4	Y4	Z4	X5	Y5	Z5	X6	Y6	Z6	X7	Y7	Z7	X8	Y8	Z8	X9	Y9	Z9	X10	Y10	Z10	X11	Y11	Z11	X12	Y12	Z12	X13	Y13	Z13	X14	Y14	Z14	X15	Y15	Z15	X16	Y16	Z16	X17	Y17	Z17	X18	Y18	Z18	X19	Y19	Z19	X20	Y20	Z20	X21	Y21	Z21	X22	Y22	Z22	X23	Y23	Z23	X24	Y24	Z24	X25	Y25	Z25	X26	Y26	Z26	X27	Y27	Z27	X28	Y28	Z28	X29	Y29	Z29	X30	Y30	Z30	X31	Y31	Z31	X32	Y32	Z32	X33	Y33	Z33	X34	Y34	Z34	X35	Y35	Z35	X36	Y36	Z36	X37	Y37	Z37	X38	Y38	Z38	X39	Y39	Z39	X40	Y40	Z40	X41	Y41	Z41	X42	Y42	Z42	X43	Y43	Z43	X44	Y44	Z44	X45	Y45	Z45	X46	Y46	Z46	X47	Y47	Z47	X48	Y48	Z48	X49	Y49	Z49	X50	Y50	Z50	
1250	6.2500	667.074045	1206.466061	-166.100376	655.749876	1145.947498	-539.712366	686.374408	1241.438560	-374.543049	605.979619	1135.636884	-338.245074	555.902635	985.865331	-48.521255	683.016294	862.768901	-132.748642	513.458894	943.227434	-662.976418	664.392591	871.518154	-536.180706	130.466818	1147.379205	-347.593019	272.507253	1113.681184	-481.938386	262.006901	1155.345317	-190.866937	312.484654	1086.418729	-447.399323	314.377448	1118.756504	-208.601225	161.760174	1184.143640	-297.573756	168.938976	1179.138728	-383.819835	241.520094	1073.116240	-143.064926	211.720131	1036.256025	-498.978670	326.026983	1023.896864	-143.933433	406.848983	987.798450	-150.207497	462.197814	926.152218	-127.357514	422.985396	1006.781643	-178.752528	535.669281	803.453297	-155.809397	514.863856	784.566267	-265.395779	463.364192	717.313532	-136.813456	399.781634	654.843678	-153.278282	319.727699	627.181135	-143.678771	407.416926	645.092195	-190.571665	211.863806	572.697959	-143.225401	234.800386	582.778988	-224.378341	269.596841	353.405710	-193.679561	203.973772	440.639165	-134.144161	227.926441	423.725272	-242.344235	306.541054	929.098109	-516.934716	366.293187	865.818530	-513.002043	396.249166	882.687858	-500.710558	385.354029	779.272663	-511.736411	432.967991	691.512780	-489.715324	438.366159	661.731948	-390.529229	409.811594	587.731654	-510.146903	414.106263	502.950198	-494.483801	371.165726	422.754724	-492.360426	433.065122	502.164232	-457.639386	331.464985	325.819317	-477.372548	349.060222	320.744702	-400.449022	260.137372	292.948348	-436.117057	533.000041	194.551336	-446.997316	423.409247	207.826519	-504.736710	-164.899756	857.517419	-315.892478	32.573776	82.245306	-515.252619	32.819480	82.297913	-115.165719	
1251	6.2550	666.103288	1207.209072	-164.416774	656.988198	1146.513086	-537.549146	686.475268	1242.390681	-372.342180	606.899221	1136.498200	-335.783863	556.007063	985.378593	-48.116231	683.007955	862.746076	-132.984080	513.345625	944.120674	-661.913467	664.608521	871.273332	-536.166699	131.210981	1145.757544	-349.335913	273.521667	1112.013722	-482.316110	261.280727	1154.715499	-191.801403	313.362101	1083.860601	-447.538913	314.187055	1118.300198	-209.103779	161.844982	1182.341690	-299.802000	169.388797	1177.108371	-385.654501	241.838545	1073.532867	-143.946542	212.224260	1033.275147	-499.576914	326.966520	1025.924585	-144.768107	408.626955	991.947580	-151.519869	465.902588	931.802789	-129.022490	423.827241	1010.903246	-180.642569	542.682743	810.690814	-157.850465	521.939022	792.378791	-267.414657	470.968771	724.266202	-139.370965	406.953583	662.159634	-155.652663	326.876709	634.815219	-145.428350	414.195147	652.477950	-193.040448	219.016299	581.000815	-144.350391	241.219682	590.954577	-225.588071	277.756586	362.231090	-194.085947	211.169116	448.942906	-135.459300	234.944455	433.288332	-242.000845	304.807434	923.951083	-517.321502	362.986311	859.208415	-513.132271	393.353157	875.374106	-500.820874	380.100446	772.432682	-511.685029	425.202610	683.758019	-489.768598	429.588764	653.813568	-390.990998	401.583174	580.555871	-510.496746	406.277219	495.843566	-494.879594	363.604269	415.418968	-492.539234	425.297836	495.343457	-458.327844	324.957177	318.424572	-477.395342	342.312122	313.395992	-400.549901	253.521975	286.487834	-436.125146	525.396072	185.081959	-446.801710	416.050246	199.550239	-504.611816	-164.926202	857.583960	-315.928972	32.574207	82.170367	-515.285288	32.344333	82.691232	-115.226335	
1252	6.2600	665.124030	1207.768276	-162.638213	657.863141	1147.104087	-536.097643	686.507746	1243.186730	-370.149486	606.862068	1137.196485	-334.106307	555.681592	985.056883	-47.218486	682.999237	862.811541	-133.146817	513.264705	945.067065	-660.844213	664.835436	870.946449	-536.050073	131.971931	1144.189539	-351.085705	274.553785	1110.319193	-482.689869	260.482989	1154.074463	-192.779971	314.231827	1081.325292	-447.573142	314.035127	1118.190369	-209.662091	162.219415	1180.216970	-302.366791	169.736813	1175.070857	-387.483557	241.896724	1074.225976	-144.631451	212.436526	1029.893023	-499.840773	327.638589	1027.904409	-145.365301	410.203951	995.954319	-153.006570	469.607830	937.655847	-131.086190	424.569983	1015.200646	-182.378641	549.401399	817.579724	-160.352035	528.004433	799.585504	-270.433878	478.440892	731.394034	-142.043500	414.203580	669.550957	-158.005627	334.423560	642.389408	-147.142256	421.221098	659.911868	-195.371632	226.340539	588.829983	-145.565899	247.759204	598.849507	-226.868576	286.628306	370.759351	-194.344269	219.525047	456.857923	-136.142276	242.663909	441.546285	-242.344370	302.851850	919.128220	-517.813857	359.495648	853.044684	-513.212550	390.228980	868.474821	-501.184779	374.518161	765.807468	-511.757309	417.374145	676.543548	-490.071727	420.188116	646.956419	-391.276150	393.332221	574.135189	-511.017136	398.299502	489.351604	-495.296142	355.874507	408.879394	-492.884253	417.453351	488.947249	-458.848261	318.087547	311.653287	-477.583423	335.421634	306.568388	-400.572383	246.557148	280.602467	-436.158282	517.346811	176.218517	-446.635543	408.171484	191.859894	-504.475856	-164.986029	857.467687	-316.111536	32.574716	82.119836	-515.322548	32.813495	82.277636	-115.178710	
1253	6.2650	664.089856	1208.214980	-160.823053	658.710965	1147.772966	-534.540070	686.536501	1243.821170	-367.955308	606.694347	1137.834690	-332.416140	555.376848	984.582373	-46.499214	682.965453	862.905745	-133.280398	513.258690	946.093631	-659.740079	665.074633	870.538512	-535.978869	132.911581	1142.499976	-352.817263	275.601688	1108.600651	-483.059212	259.663809	1153.312529	-193.718830	315.611133	1078.693577	-448.485375	313.894537	1118.085409	-210.191566	162.534639	1178.170648	-304.730280	170.103426	1173.057353	-389.180608	241.839471	1074.652294	-145.400697	212.595354	1027.092317	-500.196290	328.436163	1029.875573	-145.855267	411.514868	999.911547	-154.601136	471.631058	943.331850	-132.487491	425.122386	1019.514172	-184.128395	555.600230	826.608763	-162.603643	534.199447	807.223231	-273.310861	485.742714	738.677308	-144.657021	421.822506	677.338579	-159.735765	341.698060	649.554603	-149.129538	428.071256	667.454404	-197.728634	233.665200	596.155591	-146.776390	254.371295	606.138896	-228.173345	296.025535	378.949411	-194.679148	228.660947	464.481759	-135.998397	251.506942	447.948898	-243.523223	300.534405	914.783248	-518.338576	355.705537	847.430567	-513.757482	386.849172	862.224579	-501.541807	368.740474	759.737110	-511.884635	409.663031	670.080060	-490.655487	411.320858	641.249730	-391.788444	385.122730	568.189421	-511.651491	390.343796	483.657902	-496.136899	348.026891	402.957278	-493.267692	409.585183	483.161801	-459.526945	310.888765	305.483548	-477.819009	328.084237	300.433560	-400.747431	239.325546	275.349134	-436.162878	508.906130	167.888392	-446.419059	399.905080	184.745951	-504.358720	-165.043176	857.472516	-316.072668	32.569820	82.109656	-515.320042	32.803641	82.275770	-115.199246	
1254	6.2700	663.078568	1208.479948	-158.958951	659.576956	1148.520023	-532.808593	686.588638	1244.369319	-365.698722	606.526182	1138.391085	-330.713623	555.015690	983.882820	-45.970662	682.858215	863.055308	-133.383466	513.303451	947.235044	-658.562487	665.256728	870.106238	-535.959024	133.994366	1140.747230	-354.572976	276.663520	1106.860908	-483.423627	258.948765	1152.716876	-194.518392	316.487481	1076.416716	-448.501289	313.758613	1118.164126	-210.695547	160.980066	1177.192211	-305.237388	170.315237	1171.030102	-390.765221	241.887592	1074.819805	-146.232963	212.870732	1025.329037	-500.998838	329.123910	1031.857156	-146.613348	412.761339	1003.820590	-156.381609	474.187268	949.104856	-134.350333	425.602103	1023.786014	-185.968981	561.528512	834.597582	-165.014604	539.893854	814.744659	-275.818563	492.728407	745.970236	-147.276894	429.420315	685.001024	-161.267382	348.611623	656.519078	-150.969367	436.030442	675.521244	-198.662753	240.979798	602.994928	-147.987280	260.891804	613.344083	-229.353148	307.413231	388.057228	-193.227533	237.622475	471.609388	-136.305668	260.562675	455.073374	-244.181421	298.000457	910.998705	-518.953873	351.755570	842.480944	-514.393145	383.222012	856.616555	-502.285682	362.894759	754.534542	-512.529708	401.922100	664.456665	-491.375344	403.397189	636.114404	-392.283911	377.022602	562.853855	-512.350173	382.343007	478.201425	-496.626593	340.015048	397.780358	-494.192424	401.717791	477.912299	-460.293473	303.374591	300.003640	-478.110227	320.484534	294.961561	-401.030408	231.674174	270.940777	-436.364479	499.964488	160.021638	-446.224417	391.247947	178.237010	-504.206649	-165.035923	856.463777	-319.053589	32.560712	82.076898	-515.331966	32.794986	82.292503	-115.188598	
1255	6.2750	662.103018	1208.534171	-157.055693	660.528792	1149.044367	-530.901951	686.614200	1244.734479	-363.382074	606.474162	1138.660510	-328.948164	554.376198	983.169418	-45.327541	682.669237	863.243767	-133.522477	513.338433	948.553105	-657.489933	665.418301	869.683436	-535.967943	134.923094	1139.309638	-356.226253	277.737361	1105.103020	-483.782694	258.238577	1152.130452	-195.232677	317.105400	1074.348203	-448.444441	313.620678	1118.243956	-211.212857	160.644586	1176.123940	-306.548925	170.482083	1169.052004	-392.370335	242.066037	1074.839827	-146.977622	212.399914	1022.515892	-500.881473	329.781000	1033.972990	-147.663665	413.942899	1008.063885	-157.984302	478.121386	954.746833	-137.001934	426.235712	1028.159910	-187.961086	566.032086	841.786064	-167.005482	545.514209	822.251878	-278.355274	499.444362	753.286002	-149.834590	437.003338	692.536671	-162.612501	355.708964	663.375471	-152.747000	442.674904	682.582857	-200.992745	248.304290	609.344834	-149.196893	267.572092	619.741397	-230.633282	316.625959	394.736524	-194.876266	246.865009	478.257599	-136.641748	269.482171	461.790483	-243.998182	295.304909	907.925628	-519.609812	347.492092	837.962110	-515.750485	379.413681	851.816576	-503.143467	356.874940	750.001566	-513.329975	394.227193	659.592906	-492.240487	395.479076	631.212488	-393.849647	369.065830	558.025348	-513.180655	374.376934	473.308971	-497.397880	332.027820	392.930777	-494.872917	393.824825	473.045685	-461.073407	295.757779	295.162840	-478.499170	312.811141	290.127071	-401.347996	223.926357	267.283106	-436.617419	490.668823	152.499001	-445.993624	382.213389	172.172092	-504.093489	-165.072972	857.464323	-316.051643	32.556017	82.076098	-515.347971	32.810519	82.371339	-115.234921	
